PathFileType	4	(X/Y/Z)	/Users/niels/Desktop/University/Third Semester/Perception and Action/Exam/Gymnastics Motion Tracking/Code for Gym Tracking/Analyzed Data/Webcam_Backflip/id3_4_trajectory_Sports2D/id3_4_trajectory_Sports2D_px_person00.trc
DataRate	CameraRate	NumFrames	NumMarkers	Units	OrigDataRate	OrigDataStartFrame	OrigNumFrames
29.810126582278482	29.810126582278482	8	22	m	29.810126582278482	59	158
Frame#	Time	Hip			RHip			RKnee			RAnkle			RBigToe			RSmallToe			RHeel			LHip			LKnee			LAnkle			LBigToe			LSmallToe			LHeel			Neck			Head			Nose			RShoulder			RElbow			RWrist			LShoulder			LElbow			LWrist		
		X1	Y1	Z1	X2	Y2	Z2	X3	Y3	Z3	X4	Y4	Z4	X5	Y5	Z5	X6	Y6	Z6	X7	Y7	Z7	X8	Y8	Z8	X9	Y9	Z9	X10	Y10	Z10	X11	Y11	Z11	X12	Y12	Z12	X13	Y13	Z13	X14	Y14	Z14	X15	Y15	Z15	X16	Y16	Z16	X17	Y17	Z17	X18	Y18	Z18	X19	Y19	Z19	X20	Y20	Z20	X21	Y21	Z21	X22	Y22	Z22
59	1.9791932059447983	0.9556269159821137	-0.6108601415558306	0.0	0.9544011048245133	-0.6100309284365845	0.0	1.0294409627281984	-0.6960791694945233	0.0	0.9808899617368588	-0.7974330501180316	0.0	1.023042788505556	-0.8132814909083721	0.0	1.0108219636103661	-0.8166917586386007	0.0	0.9680430309626806	-0.806691022175775	0.0	0.9635338314523686	-0.6065467125203646	0.0	1.0345894516816676	-0.6864119798114828	0.0	0.9860222889592278	-0.7872432666890268	0.0	1.031314027594671	-0.8014150932237571	0.0	1.0263276200749452	-0.7992781368896184	0.0	0.9722500560764382	-0.7982287285466211	0.0	1.0376164395773857	-0.4830547040504231	0.0	1.0829900603529294	-0.4247560416650147	0.0	1.083985765067182	-0.45590116914035494	0.0	1.0198250372474305	-0.4982842169015283	0.0	0.9742325857507447	-0.5508648772687967	0.0	0.9490212725017569	-0.5962578849786861	0.0	1.0282931678022682	-0.4950669681983456	0.0	0.988039670251948	-0.5453643256332349	0.0	0.971781514190842	-0.5888299386448735	0.0
60	2.0127388535031847	0.9583786058918622	-0.630111942367303	0.0	0.9576002274839039	-0.6299961998328624	0.0	1.0293561013123453	-0.7189828809318031	0.0	0.9816347626831518	-0.818601263966696	0.0	1.022829672922481	-0.8349642717065061	0.0	1.00970742917803	-0.8376964411518909	0.0	0.9687967588585229	-0.8262480345307863	0.0	0.964757054011878	-0.62705666793249	0.0	1.031470972484691	-0.7111184398484708	0.0	0.9845749159858008	-0.8114568360012786	0.0	1.0302254354130733	-0.81954310019938	0.0	1.0235621636990484	-0.8193396913913648	0.0	0.9695389795663268	-0.8202944415559597	0.0	1.0297602590787511	-0.4940901158392478	0.0	1.0641216666622335	-0.43158783473591444	0.0	1.071359593329534	-0.46272746954492827	0.0	1.0132573240867542	-0.5113306811212024	0.0	0.9892447450682942	-0.5746239132007268	0.0	0.9895925323631246	-0.6188458700680367	0.0	1.023504341266284	-0.5082393114941822	0.0	1.0086836635201049	-0.5639449898494834	0.0	1.0162486817181835	-0.6045202940234342	0.0
61	2.046284501061571	0.9627424431684797	-0.646220089007548	0.0	0.9621500753552573	-0.6467412131398823	0.0	1.0271920739944653	-0.7406664762848393	0.0	0.9821493448971312	-0.8394905634569656	0.0	1.0225957165342	-0.8555547368652203	0.0	1.0081264965361687	-0.8580934207064368	0.0	0.969385213208508	-0.8459168984593617	0.0	0.9676775383343232	-0.6443039765751077	0.0	1.0268839171378108	-0.7343924809255934	0.0	0.983450514545049	-0.8345714325940685	0.0	1.0280109987862869	-0.8373791852821607	0.0	1.0196150571907603	-0.8389304623338275	0.0	0.9673947935329842	-0.841389814594738	0.0	1.0203516569354651	-0.5021198603321126	0.0	1.042054462366546	-0.43556005179237045	0.0	1.056483426939052	-0.46607471387261545	0.0	1.005826275905776	-0.5202533944455408	0.0	1.005677855476675	-0.5847969595060893	0.0	1.0298951597167998	-0.617867778841029	0.0	1.0177752237622253	-0.5171640811229327	0.0	1.0287741818908065	-0.5688551498016735	0.0	1.0572693950238454	-0.5984892815478372	0.0
62	2.0798301486199575	0.9686781412460624	-0.6553075796033637	0.0	0.9682424511641452	-0.6561880072871553	0.0	1.02387850285964	-0.7561842293101785	0.0	0.9824193011116107	-0.8556812830141867	0.0	1.021697755605854	-0.8708646510341063	0.0	1.0061889707834517	-0.8736437675138929	0.0	0.969844591180503	-0.8616919915365823	0.0	0.9721738355840523	-0.6541273850718959	0.0	1.0217035250611564	-0.7513090547565999	0.0	0.9826281546844396	-0.8521056987131451	0.0	1.0247118046960264	-0.8522670341926053	0.0	1.0147850487011936	-0.8548746716671906	0.0	0.9660790728649359	-0.8577106732040266	0.0	1.0100964310543334	-0.5050085858453932	0.0	1.017781969898965	-0.4351468735124832	0.0	1.0399362731144044	-0.46407970353726596	0.0	0.9982182880611377	-0.5224825084549175	0.0	1.0200533051589378	-0.5771692930621026	0.0	1.060960575571915	-0.5906702379728024	0.0	1.010755288666058	-0.5190875083840482	0.0	1.0428715738529983	-0.5571825932939	0.0	1.0845893668397886	-0.5688488782224173	0.0
63	2.1133757961783437	0.9759179520454451	-0.6535099302324404	0.0	0.9758065438343213	-0.6544311126391822	0.0	1.0211519927071762	-0.7605028455902318	0.0	0.982920545754265	-0.8623791298053064	0.0	1.0196088813526563	-0.877540367916508	0.0	1.0042967259564461	-0.8807217468862704	0.0	0.9707322686561777	-0.869007974580291	0.0	0.9776994857638575	-0.6526427617446604	0.0	1.0173895907586983	-0.7569482311498702	0.0	0.9824408048904404	-0.8594857399276944	0.0	1.0207397776797877	-0.8610796841487871	0.0	1.0098498041364035	-0.8637803891706257	0.0	0.9660212060923603	-0.8649746401791326	0.0	0.9993309794921399	-0.5004350519868808	0.0	0.99236732016103	-0.42866509291069893	0.0	1.022075934481915	-0.4548605396112864	0.0	0.9906228344935704	-0.5154272053879296	0.0	1.0285793884532028	-0.5503438069524896	0.0	1.075496914244071	-0.5405731421617364	0.0	1.0019321931183478	-0.5116120682754226	0.0	1.047206556177534	-0.5294344919216277	0.0	1.0922035184383463	-0.5197223215234	0.0
64	2.1469214437367303	0.9838889378983389	-0.6385152053459028	0.0	0.9842685735892882	-0.6392195631030053	0.0	1.0213970683137945	-0.7501591840990333	0.0	0.9846441158552911	-0.8558500478713305	0.0	1.0167696819626235	-0.8733628352218581	0.0	1.0030205172605506	-0.8768389159246033	0.0	0.9729796576874654	-0.8640258340756022	0.0	0.9835480902997594	-0.6376621341927099	0.0	1.01601334829516	-0.7478214702507878	0.0	0.983735589934684	-0.8532226923066631	0.0	1.017156547623637	-0.8606242612181171	0.0	1.0062229186318092	-0.8625816481571765	0.0	0.9679420324242678	-0.8595643277607807	0.0	0.9879819699325417	-0.4869372277202208	0.0	0.9665813135308312	-0.41503260809029385	0.0	1.0029661065173998	-0.43741299479087814	0.0	0.9824614221673359	-0.4977867023496903	0.0	1.0285258401403152	-0.5069213977572439	0.0	1.0712519596383638	-0.47558476016935325	0.0	0.9910815137776354	-0.49389711390457125	0.0	1.0412432144412795	-0.4892947634929426	0.0	1.0808460118498904	-0.4593482311889124	0.0
65	2.180467091295117	0.9915678128013333	-0.6108964150502735	0.0	0.9923694063758229	-0.6112011227509849	0.0	1.027045422336493	-0.724382737235659	0.0	0.9888618199574949	-0.8345871641885249	0.0	1.0150143440025448	-0.8572020144228428	0.0	1.0033789083624443	-0.8606111469732474	0.0	0.9775065172078964	-0.8447068279072295	0.0	0.988911957277202	-0.6098671560221721	0.0	1.0198693281019244	-0.7230150576411871	0.0	0.98765485561766	-0.8320818913424495	0.0	1.0157554538256564	-0.8483957162398404	0.0	1.0057319899474733	-0.8491854077458059	0.0	0.9725354495432671	-0.8397485955976058	0.0	0.9759128067934613	-0.4649334676881299	0.0	0.9408581401624011	-0.39489918527963114	0.0	0.9826189489068576	-0.41251049839985593	0.0	0.9728305487060523	-0.4708209137029632	0.0	1.0197377603007125	-0.4538265720056289	0.0	1.0520228202721231	-0.40607798812553797	0.0	0.9786243563285987	-0.46744631780363527	0.0	1.0276384445684985	-0.44288743529634267	0.0	1.057073971802588	-0.3974169938557752	0.0
66	2.214012738853503	0.9977010868619509	-0.574177029754837	0.0	0.998550587294998	-0.5739705243393357	0.0	1.0393669523117803	-0.6848067029662527	0.0	0.9968283146910298	-0.7991041162549902	0.0	1.017210322713976	-0.8286750900390198	0.0	1.0073107218157649	-0.8314813727284507	0.0	0.9851593340187	-0.8108742786586002	0.0	0.9930364020904756	-0.5728080094995206	0.0	1.030413682768374	-0.6840248140229724	0.0	0.9952526563715317	-0.7968295470854474	0.0	1.0186137571717042	-0.8230084901662126	0.0	1.0100079170456557	-0.8226301307594029	0.0	0.9803197713740466	-0.8056717849617141	0.0	0.9631270878609592	-0.43681614384186673	0.0	0.9155290530983451	-0.37090590881448426	0.0	0.9612536454500666	-0.38277991267526923	0.0	0.9612034543068075	-0.4381765119116365	0.0	1.004932564475846	-0.40006922669622935	0.0	1.0253735566183353	-0.3416818290270199	0.0	0.9655241148519588	-0.4357296408483393	0.0	1.0109237185651516	-0.39733763905001035	0.0	1.0298467605346948	-0.34244631097564265	0.0
